<?xml version="1.0" encoding="UTF-8"?><svg id="uuid-082a2b75-c097-41a0-b8ac-f427c86fece5" xmlns="http://www.w3.org/2000/svg" viewBox="0 0 823.37 823.37"><defs><style>.uuid-bc1e4baa-6080-4644-b5c1-0d8a7200c0ee{fill:#2e9264;stroke-width:0px;}</style></defs><path class="uuid-bc1e4baa-6080-4644-b5c1-0d8a7200c0ee" d="m375.69,655.93l.05,13.21c.12,31.41,36.85,40.48,38.23,50.56h1.03c1.33-10.02,37.78-19.64,37.67-50.85l-.05-13.21-76.92.29Z"/><polygon class="uuid-bc1e4baa-6080-4644-b5c1-0d8a7200c0ee" points="439.04 763.3 424.47 763.3 414.16 752.99 403.85 763.3 389.28 763.3 389.28 777.88 378.97 788.18 389.28 798.49 389.28 813.07 403.85 813.07 414.16 823.37 424.47 813.07 439.04 813.07 439.04 798.49 449.35 788.18 439.04 777.88 439.04 763.3"/><path class="uuid-bc1e4baa-6080-4644-b5c1-0d8a7200c0ee" d="m479.05,732.76l-2.39.46-2.39.46c-7.12,1.38-8.04,7.09-7.89,16.2.06,3.61.09,8.28-.11,10.04l15.02-2.92,15.02-2.92c-.84-1.55-2.56-5.89-3.86-9.26-3.28-8.5-6.27-13.45-13.39-12.07Z"/><path class="uuid-bc1e4baa-6080-4644-b5c1-0d8a7200c0ee" d="m361.95,749.89c.15-9.11-.78-14.82-7.89-16.2l-2.39-.46-2.39-.46c-7.12-1.38-10.11,3.56-13.39,12.07-1.3,3.37-3.02,7.71-3.86,9.26l15.02,2.92,15.02,2.92c-.2-1.75-.17-6.42-.11-10.04Z"/><path class="uuid-bc1e4baa-6080-4644-b5c1-0d8a7200c0ee" d="m258.82,622.51l9.31-9.38-54.6-54.19-9.31,9.38c-22.12,22.29-2.57,54.68-8.72,62.78l.73.72c8.02-6.15,40.6,12.84,62.58-9.32Z"/><polygon class="uuid-bc1e4baa-6080-4644-b5c1-0d8a7200c0ee" points="172.1 654.78 157.52 654.78 147.22 644.47 136.91 654.78 122.33 654.78 122.33 669.35 112.03 679.66 122.33 689.97 122.33 704.54 136.91 704.54 147.22 714.85 157.52 704.54 172.1 704.54 172.1 689.97 182.4 679.66 172.1 669.35 172.1 654.78"/><path class="uuid-bc1e4baa-6080-4644-b5c1-0d8a7200c0ee" d="m232.29,686.35l-2.02-1.36-2.02-1.36c-6.01-4.05-10.7-.67-17.04,5.87-2.51,2.6-5.79,5.92-7.17,7.02l12.68,8.56,12.68,8.56c.5-1.69,2.35-5.98,3.82-9.28,3.7-8.33,5.07-13.95-.94-18Z"/><path class="uuid-bc1e4baa-6080-4644-b5c1-0d8a7200c0ee" d="m137.37,615.66c6.55-6.34,9.93-11.03,5.88-17.04l-1.36-2.02-1.36-2.02c-4.05-6.01-9.67-4.63-18-.94-3.3,1.47-7.59,3.32-9.28,3.82l8.56,12.68,8.56,12.68c1.1-1.38,4.42-4.66,7.02-7.18Z"/><path class="uuid-bc1e4baa-6080-4644-b5c1-0d8a7200c0ee" d="m103.67,413.97v1.03c10.02,1.33,19.63,37.78,50.85,37.67l13.21-.05-.29-76.92-13.21.05c-31.41.12-40.48,36.85-50.56,38.23Z"/><polygon class="uuid-bc1e4baa-6080-4644-b5c1-0d8a7200c0ee" points="60.07 439.04 60.07 424.46 70.38 414.16 60.07 403.85 60.07 389.28 45.5 389.28 35.19 378.97 24.88 389.28 10.31 389.28 10.31 403.85 0 414.16 10.31 424.46 10.31 439.04 24.88 439.04 35.19 449.35 45.5 439.04 60.07 439.04"/><path class="uuid-bc1e4baa-6080-4644-b5c1-0d8a7200c0ee" d="m90.15,476.66l-.46-2.39c-1.38-7.12-7.09-8.04-16.2-7.89-3.61.06-8.28.09-10.04-.11l2.92,15.02,2.92,15.02c1.55-.84,5.89-2.56,9.26-3.86,8.5-3.28,13.45-6.27,12.07-13.39l-.46-2.39Z"/><path class="uuid-bc1e4baa-6080-4644-b5c1-0d8a7200c0ee" d="m78.55,335.88c-3.37-1.3-7.71-3.02-9.26-3.86l-2.92,15.02-2.92,15.02c1.75-.2,6.42-.17,10.04-.11,9.11.15,14.82-.78,16.2-7.89l.46-2.39.46-2.39c1.38-7.12-3.56-10.11-12.07-13.39Z"/><path class="uuid-bc1e4baa-6080-4644-b5c1-0d8a7200c0ee" d="m200.86,258.81l9.38,9.31,54.19-54.6-9.38-9.31c-22.29-22.13-54.68-2.57-62.78-8.72l-.72.73c6.15,8.02-12.83,40.6,9.32,62.58Z"/><polygon class="uuid-bc1e4baa-6080-4644-b5c1-0d8a7200c0ee" points="118.83 157.52 118.83 172.1 133.41 172.1 143.71 182.4 154.02 172.1 168.59 172.1 168.59 157.52 178.9 147.21 168.59 136.91 168.59 122.33 154.02 122.33 143.71 112.02 133.41 122.33 118.83 122.33 118.83 136.91 108.52 147.21 118.83 157.52"/><path class="uuid-bc1e4baa-6080-4644-b5c1-0d8a7200c0ee" d="m126.85,204.04l-8.56,12.68-8.56,12.68c1.69.5,5.98,2.35,9.28,3.82,8.33,3.7,13.95,5.07,18-.94l1.36-2.02,1.36-2.02c4.05-6.01.67-10.7-5.87-17.04-2.6-2.51-5.92-5.79-7.02-7.18Z"/><path class="uuid-bc1e4baa-6080-4644-b5c1-0d8a7200c0ee" d="m207.71,137.37c6.34,6.55,11.03,9.93,17.04,5.87l2.02-1.36,2.02-1.36c6.01-4.05,4.63-9.67.94-18-1.47-3.3-3.32-7.59-3.82-9.28l-12.68,8.56-12.68,8.56c1.38,1.1,4.66,4.42,7.18,7.02Z"/><path class="uuid-bc1e4baa-6080-4644-b5c1-0d8a7200c0ee" d="m447.68,167.44l-.05-13.21c-.12-31.41-36.85-40.48-38.23-50.56h-1.03c-1.33,10.02-37.78,19.64-37.67,50.85l.05,13.21,76.92-.29Z"/><polygon class="uuid-bc1e4baa-6080-4644-b5c1-0d8a7200c0ee" points="384.33 60.07 398.9 60.07 409.21 70.38 419.52 60.07 434.09 60.07 434.09 45.5 444.4 35.19 434.09 24.88 434.09 10.31 419.52 10.31 409.21 0 398.9 10.31 384.33 10.31 384.33 24.88 374.02 35.19 384.33 45.5 384.33 60.07"/><path class="uuid-bc1e4baa-6080-4644-b5c1-0d8a7200c0ee" d="m344.32,90.62l2.39-.46,2.39-.46c7.12-1.38,8.04-7.09,7.89-16.2-.06-3.61-.09-8.28.11-10.04l-15.02,2.92-15.02,2.92c.84,1.55,2.56,5.89,3.86,9.26,3.28,8.5,6.27,13.45,13.39,12.07Z"/><path class="uuid-bc1e4baa-6080-4644-b5c1-0d8a7200c0ee" d="m461.43,73.48c-.15,9.11.78,14.82,7.89,16.2l2.39.46,2.39.46c7.12,1.38,10.11-3.56,13.39-12.07,1.3-3.37,3.02-7.71,3.86-9.26l-15.02-2.92-15.02-2.92c.2,1.75.17,6.42.11,10.04Z"/><path class="uuid-bc1e4baa-6080-4644-b5c1-0d8a7200c0ee" d="m564.56,200.86l-9.31,9.38,54.6,54.19,9.31-9.38c22.12-22.29,2.57-54.68,8.72-62.78l-.73-.72c-8.02,6.15-40.6-12.84-62.58,9.32Z"/><polygon class="uuid-bc1e4baa-6080-4644-b5c1-0d8a7200c0ee" points="651.28 168.59 665.85 168.59 676.16 178.9 686.47 168.59 701.04 168.59 701.04 154.02 711.35 143.71 701.04 133.4 701.04 118.83 686.47 118.83 676.16 108.52 665.85 118.83 651.28 118.83 651.28 133.4 640.97 143.71 651.28 154.02 651.28 168.59"/><path class="uuid-bc1e4baa-6080-4644-b5c1-0d8a7200c0ee" d="m591.08,137.02l2.02,1.36,2.02,1.36c6.01,4.05,10.7.67,17.04-5.87,2.51-2.6,5.79-5.92,7.18-7.02l-12.68-8.56-12.68-8.56c-.5,1.69-2.35,5.98-3.82,9.28-3.7,8.33-5.07,13.95.94,18Z"/><path class="uuid-bc1e4baa-6080-4644-b5c1-0d8a7200c0ee" d="m686,207.71c-6.55,6.34-9.93,11.03-5.87,17.04l1.36,2.02,1.36,2.02c4.05,6.01,9.67,4.63,18,.94,3.3-1.47,7.59-3.32,9.28-3.82l-8.56-12.68-8.56-12.68c-1.1,1.38-4.42,4.66-7.02,7.18Z"/><path class="uuid-bc1e4baa-6080-4644-b5c1-0d8a7200c0ee" d="m719.7,409.4v-1.03c-10.02-1.33-19.63-37.78-50.85-37.67l-13.21.05.29,76.92,13.21-.05c31.41-.12,40.48-36.85,50.56-38.23Z"/><polygon class="uuid-bc1e4baa-6080-4644-b5c1-0d8a7200c0ee" points="813.06 398.9 813.06 384.33 798.49 384.33 788.18 374.02 777.87 384.33 763.3 384.33 763.3 398.9 752.99 409.21 763.3 419.52 763.3 434.09 777.87 434.09 788.18 444.4 798.49 434.09 813.06 434.09 813.06 419.52 823.37 409.21 813.06 398.9"/><path class="uuid-bc1e4baa-6080-4644-b5c1-0d8a7200c0ee" d="m733.22,346.71l.46,2.39c1.38,7.12,7.09,8.04,16.2,7.89,3.61-.06,8.28-.09,10.04.11l-2.92-15.02-2.92-15.02c-1.55.84-5.89,2.56-9.26,3.86-8.5,3.28-13.45,6.27-12.07,13.39l.46,2.39Z"/><path class="uuid-bc1e4baa-6080-4644-b5c1-0d8a7200c0ee" d="m744.82,487.49c3.37,1.3,7.71,3.02,9.26,3.86l2.92-15.02,2.92-15.02c-1.75.2-6.42.17-10.04.11-9.11-.15-14.82.78-16.2,7.89l-.46,2.39-.46,2.39c-1.38,7.12,3.56,10.11,12.07,13.39Z"/><path class="uuid-bc1e4baa-6080-4644-b5c1-0d8a7200c0ee" d="m622.51,564.56l-9.38-9.31-54.19,54.6,9.38,9.31c22.29,22.13,54.68,2.57,62.78,8.72l.72-.73c-6.15-8.02,12.83-40.6-9.32-62.58Z"/><polygon class="uuid-bc1e4baa-6080-4644-b5c1-0d8a7200c0ee" points="704.54 651.28 689.96 651.28 679.66 640.97 669.35 651.28 654.78 651.28 654.78 665.85 644.47 676.16 654.78 686.47 654.78 701.04 669.35 701.04 679.66 711.35 689.96 701.04 704.54 701.04 704.54 686.47 714.85 676.16 704.54 665.85 704.54 651.28"/><path class="uuid-bc1e4baa-6080-4644-b5c1-0d8a7200c0ee" d="m696.52,619.33l8.56-12.68,8.56-12.68c-1.69-.5-5.98-2.35-9.28-3.82-8.33-3.7-13.95-5.07-18,.94l-1.36,2.02-1.36,2.02c-4.05,6.01-.67,10.7,5.88,17.04,2.6,2.51,5.92,5.79,7.02,7.18Z"/><path class="uuid-bc1e4baa-6080-4644-b5c1-0d8a7200c0ee" d="m615.66,686c-6.34-6.55-11.03-9.93-17.04-5.87l-2.02,1.36-2.02,1.36c-6.01,4.05-4.63,9.67-.94,18,1.47,3.3,3.32,7.59,3.82,9.28l12.68-8.56,12.68-8.56c-1.38-1.1-4.66-4.42-7.18-7.02Z"/><path class="uuid-bc1e4baa-6080-4644-b5c1-0d8a7200c0ee" d="m552.61,704.08l4.43-1.79-27.09-46.95-5.26,2.12-6.58-16.3,3.79-1.53.34-14.89-39.23,15.85,10.59,10.48,3.79-1.53,6.58,16.3-5.26,2.12,13.13,52.59,4.43-1.79c-1.94-9.59,2.84-19.36,11.85-23,9-3.64,19.22.07,24.5,8.31Zm-41.12-41.28l-6.58-16.3,5.69-2.3,6.58,16.3-5.69,2.3Z"/><path class="uuid-bc1e4baa-6080-4644-b5c1-0d8a7200c0ee" d="m545.51,736.8c-20.97,8.47.37,29.97-15.21,36.27,3.66,4.65,11.44,4.98,17.5-.94,4.45,11.02,8.35,8.21,17.66,14.06,2.63-10.68,7.39-11.36,2.94-22.38,8.47.05,13.84-5.59,13.24-11.48-15.58,6.3-15.17-23.99-36.13-15.52Z"/><path class="uuid-bc1e4baa-6080-4644-b5c1-0d8a7200c0ee" d="m300.26,623.98l.08,14.9,3.76,1.6-6.87,16.18-5.22-2.21-27.9,46.47,4.4,1.87c5.41-8.15,15.7-11.68,24.64-7.89,8.94,3.79,13.55,13.64,11.44,23.2l4.4,1.87,14.04-52.35-5.22-2.21,6.87-16.18,3.76,1.6,10.77-10.29-38.95-16.53Zm10.09,38.24l-5.65-2.4,6.87-16.18,5.65,2.4-6.87,16.18Z"/><path class="uuid-bc1e4baa-6080-4644-b5c1-0d8a7200c0ee" d="m276.43,736.2c-20.82-8.84-20.93,21.46-36.4,14.89-.7,5.88,4.57,11.61,13.04,11.71-4.64,10.94.1,11.71,2.54,22.43,9.41-5.69,13.26-2.81,17.9-13.75,5.96,6.03,13.74,5.83,17.48,1.25-15.47-6.57,6.24-27.69-14.57-36.53Z"/><path class="uuid-bc1e4baa-6080-4644-b5c1-0d8a7200c0ee" d="m182.79,483.01l-10.48,10.59,1.53,3.79-16.3,6.58-2.12-5.26-52.59,13.13,1.79,4.43c9.59-1.94,19.36,2.84,23,11.84,3.64,9-.07,19.22-8.31,24.5l1.79,4.43,46.95-27.09-2.12-5.26,16.3-6.58,1.53,3.79,14.89.34-15.85-39.23Zm-19.91,34.17l-2.3-5.69,16.3-6.58,2.3,5.69-16.3,6.58Z"/><path class="uuid-bc1e4baa-6080-4644-b5c1-0d8a7200c0ee" d="m50.31,530.3c-4.65,3.66-4.98,11.44.94,17.5-11.02,4.45-8.21,8.35-14.06,17.66,10.68,2.63,11.36,7.39,22.38,2.94-.05,8.47,5.59,13.84,11.48,13.24-6.3-15.58,23.99-15.17,15.52-36.13-8.47-20.97-29.97.37-36.27-15.21Z"/><path class="uuid-bc1e4baa-6080-4644-b5c1-0d8a7200c0ee" d="m157.99,317.82l16.18,6.87-1.6,3.76,10.29,10.77,16.53-38.95-14.9.08-1.6,3.76-16.18-6.87,2.21-5.22-46.47-27.9-1.87,4.4c8.15,5.41,11.68,15.7,7.89,24.64-3.79,8.94-13.64,13.55-23.2,11.44l-1.87,4.4,52.35,14.05,2.21-5.22Zm5.57-13.12l16.18,6.87-2.4,5.65-16.18-6.87,2.4-5.65Z"/><path class="uuid-bc1e4baa-6080-4644-b5c1-0d8a7200c0ee" d="m51.89,273.52c-6.03,5.96-5.83,13.74-1.25,17.48,6.57-15.47,27.69,6.24,36.53-14.57,8.84-20.82-21.46-20.93-14.89-36.4-5.88-.7-11.61,4.57-11.71,13.04-10.94-4.64-11.71.1-22.43,2.55,5.69,9.41,2.81,13.26,13.75,17.9Z"/><path class="uuid-bc1e4baa-6080-4644-b5c1-0d8a7200c0ee" d="m270.77,119.3l-4.43,1.79,27.09,46.95,5.26-2.12,6.58,16.3-3.79,1.53-.34,14.89,39.23-15.85-10.59-10.48-3.79,1.53-6.58-16.3,5.26-2.12-13.13-52.59-4.43,1.79c1.94,9.59-2.84,19.36-11.84,23-9,3.64-19.22-.07-24.5-8.31Zm41.12,41.28l6.58,16.3-5.69,2.3-6.58-16.3,5.69-2.3Z"/><path class="uuid-bc1e4baa-6080-4644-b5c1-0d8a7200c0ee" d="m277.86,86.58c20.97-8.47-.37-29.97,15.21-36.27-3.66-4.65-11.44-4.98-17.5.94-4.45-11.02-8.35-8.21-17.66-14.06-2.63,10.68-7.39,11.36-2.94,22.38-8.47-.05-13.84,5.59-13.24,11.48,15.58-6.3,15.17,23.99,36.13,15.52Z"/><path class="uuid-bc1e4baa-6080-4644-b5c1-0d8a7200c0ee" d="m523.11,199.4l-.08-14.9-3.76-1.6,6.87-16.18,5.22,2.22,27.9-46.47-4.4-1.87c-5.41,8.15-15.7,11.68-24.64,7.89-8.94-3.79-13.55-13.64-11.44-23.2l-4.4-1.87-14.05,52.35,5.22,2.21-6.87,16.18-3.76-1.6-10.77,10.29,38.95,16.53Zm-10.09-38.24l5.65,2.4-6.87,16.18-5.65-2.4,6.87-16.18Z"/><path class="uuid-bc1e4baa-6080-4644-b5c1-0d8a7200c0ee" d="m546.94,87.18c20.82,8.84,20.93-21.46,36.4-14.89.7-5.88-4.57-11.61-13.04-11.71,4.64-10.94-.1-11.71-2.54-22.43-9.41,5.69-13.26,2.81-17.9,13.75-5.96-6.03-13.74-5.83-17.48-1.25,15.47,6.57-6.24,27.69,14.57,36.53Z"/><polygon class="uuid-bc1e4baa-6080-4644-b5c1-0d8a7200c0ee" points="582.33 298.76 564.19 259.18 526.26 241.8 495.95 213.16 452.49 211.17 411.69 196.02 372.57 210.54 330.89 211.72 298.75 241.05 259.18 259.18 241.8 297.11 213.16 327.42 211.17 370.89 196.02 411.68 210.54 450.78 211.72 492.48 241.06 524.64 259.19 564.19 297.09 581.56 327.42 610.22 370.9 612.21 411.69 627.36 450.77 612.84 492.48 611.66 524.64 582.31 564.19 564.19 581.56 526.29 610.21 495.96 612.21 452.47 627.35 411.69 612.83 372.59 611.65 330.9 582.33 298.76"/><path class="uuid-bc1e4baa-6080-4644-b5c1-0d8a7200c0ee" d="m695.76,295.27c-3.64-9,.07-19.22,8.31-24.5l-1.79-4.43-46.95,27.09,2.12,5.26-16.3,6.58-1.53-3.79-14.89-.34,15.85,39.23,10.48-10.59-1.53-3.79,16.3-6.58,2.12,5.26,52.59-13.13-1.79-4.43c-9.6,1.94-19.36-2.84-23-11.84Zm-49.26,23.21l-2.3-5.69,16.3-6.58,2.3,5.69-16.3,6.58Z"/><path class="uuid-bc1e4baa-6080-4644-b5c1-0d8a7200c0ee" d="m773.06,293.08c4.65-3.66,4.98-11.44-.94-17.5,11.02-4.45,8.21-8.35,14.06-17.66-10.68-2.63-11.36-7.39-22.38-2.94.05-8.47-5.59-13.84-11.48-13.24,6.3,15.58-23.99,15.17-15.52,36.13,8.47,20.97,29.97-.37,36.27,15.21Z"/><path class="uuid-bc1e4baa-6080-4644-b5c1-0d8a7200c0ee" d="m665.38,505.56l-16.18-6.87,1.6-3.76-10.29-10.77-16.53,38.95,14.9-.08,1.6-3.76,16.18,6.87-2.22,5.22,46.47,27.9,1.87-4.4c-8.15-5.41-11.68-15.7-7.89-24.64,3.79-8.94,13.64-13.55,23.2-11.44l1.87-4.4-52.35-14.05-2.21,5.22Zm-5.57,13.12l-16.18-6.87,2.4-5.65,16.18,6.87-2.4,5.65Z"/><path class="uuid-bc1e4baa-6080-4644-b5c1-0d8a7200c0ee" d="m771.48,549.86c6.03-5.96,5.83-13.74,1.25-17.48-6.57,15.47-27.69-6.24-36.53,14.57-8.84,20.82,21.46,20.93,14.89,36.4,5.88.7,11.61-4.57,11.71-13.04,10.94,4.64,11.71-.1,22.43-2.54-5.69-9.41-2.81-13.26-13.75-17.9Z"/><path class="uuid-bc1e4baa-6080-4644-b5c1-0d8a7200c0ee" d="m375.69,655.93l.05,13.21c.12,31.41,36.85,40.48,38.23,50.56h1.03c1.33-10.02,37.78-19.64,37.67-50.85l-.05-13.21-76.92.29Z"/><polygon class="uuid-bc1e4baa-6080-4644-b5c1-0d8a7200c0ee" points="439.04 763.3 424.47 763.3 414.16 752.99 403.85 763.3 389.28 763.3 389.28 777.88 378.97 788.18 389.28 798.49 389.28 813.07 403.85 813.07 414.16 823.37 424.47 813.07 439.04 813.07 439.04 798.49 449.35 788.18 439.04 777.88 439.04 763.3"/><path class="uuid-bc1e4baa-6080-4644-b5c1-0d8a7200c0ee" d="m479.05,732.76l-2.39.46-2.39.46c-7.12,1.38-8.04,7.09-7.89,16.2.06,3.61.09,8.28-.11,10.04l15.02-2.92,15.02-2.92c-.84-1.55-2.56-5.89-3.86-9.26-3.28-8.5-6.27-13.45-13.39-12.07Z"/><path class="uuid-bc1e4baa-6080-4644-b5c1-0d8a7200c0ee" d="m361.95,749.89c.15-9.11-.78-14.82-7.89-16.2l-2.39-.46-2.39-.46c-7.12-1.38-10.11,3.56-13.39,12.07-1.3,3.37-3.02,7.71-3.86,9.26l15.02,2.92,15.02,2.92c-.2-1.75-.17-6.42-.11-10.04Z"/><path class="uuid-bc1e4baa-6080-4644-b5c1-0d8a7200c0ee" d="m258.82,622.51l9.31-9.38-54.6-54.19-9.31,9.38c-22.12,22.29-2.57,54.68-8.72,62.78l.73.72c8.02-6.15,40.6,12.84,62.58-9.32Z"/><polygon class="uuid-bc1e4baa-6080-4644-b5c1-0d8a7200c0ee" points="172.1 654.78 157.52 654.78 147.22 644.47 136.91 654.78 122.33 654.78 122.33 669.35 112.03 679.66 122.33 689.97 122.33 704.54 136.91 704.54 147.22 714.85 157.52 704.54 172.1 704.54 172.1 689.97 182.4 679.66 172.1 669.35 172.1 654.78"/><path class="uuid-bc1e4baa-6080-4644-b5c1-0d8a7200c0ee" d="m232.29,686.35l-2.02-1.36-2.02-1.36c-6.01-4.05-10.7-.67-17.04,5.87-2.51,2.6-5.79,5.92-7.17,7.02l12.68,8.56,12.68,8.56c.5-1.69,2.35-5.98,3.82-9.28,3.7-8.33,5.07-13.95-.94-18Z"/><path class="uuid-bc1e4baa-6080-4644-b5c1-0d8a7200c0ee" d="m137.37,615.66c6.55-6.34,9.93-11.03,5.88-17.04l-1.36-2.02-1.36-2.02c-4.05-6.01-9.67-4.63-18-.94-3.3,1.47-7.59,3.32-9.28,3.82l8.56,12.68,8.56,12.68c1.1-1.38,4.42-4.66,7.02-7.18Z"/><path class="uuid-bc1e4baa-6080-4644-b5c1-0d8a7200c0ee" d="m103.67,413.97v1.03c10.02,1.33,19.63,37.78,50.85,37.67l13.21-.05-.29-76.92-13.21.05c-31.41.12-40.48,36.85-50.56,38.23Z"/><polygon class="uuid-bc1e4baa-6080-4644-b5c1-0d8a7200c0ee" points="60.07 439.04 60.07 424.46 70.38 414.16 60.07 403.85 60.07 389.28 45.5 389.28 35.19 378.97 24.88 389.28 10.31 389.28 10.31 403.85 0 414.16 10.31 424.46 10.31 439.04 24.88 439.04 35.19 449.35 45.5 439.04 60.07 439.04"/><path class="uuid-bc1e4baa-6080-4644-b5c1-0d8a7200c0ee" d="m90.15,476.66l-.46-2.39c-1.38-7.12-7.09-8.04-16.2-7.89-3.61.06-8.28.09-10.04-.11l2.92,15.02,2.92,15.02c1.55-.84,5.89-2.56,9.26-3.86,8.5-3.28,13.45-6.27,12.07-13.39l-.46-2.39Z"/><path class="uuid-bc1e4baa-6080-4644-b5c1-0d8a7200c0ee" d="m78.55,335.88c-3.37-1.3-7.71-3.02-9.26-3.86l-2.92,15.02-2.92,15.02c1.75-.2,6.42-.17,10.04-.11,9.11.15,14.82-.78,16.2-7.89l.46-2.39.46-2.39c1.38-7.12-3.56-10.11-12.07-13.39Z"/><path class="uuid-bc1e4baa-6080-4644-b5c1-0d8a7200c0ee" d="m200.86,258.81l9.38,9.31,54.19-54.6-9.38-9.31c-22.29-22.13-54.68-2.57-62.78-8.72l-.72.73c6.15,8.02-12.83,40.6,9.32,62.58Z"/><polygon class="uuid-bc1e4baa-6080-4644-b5c1-0d8a7200c0ee" points="118.83 157.52 118.83 172.1 133.41 172.1 143.71 182.4 154.02 172.1 168.59 172.1 168.59 157.52 178.9 147.21 168.59 136.91 168.59 122.33 154.02 122.33 143.71 112.02 133.41 122.33 118.83 122.33 118.83 136.91 108.52 147.21 118.83 157.52"/><path class="uuid-bc1e4baa-6080-4644-b5c1-0d8a7200c0ee" d="m126.85,204.04l-8.56,12.68-8.56,12.68c1.69.5,5.98,2.35,9.28,3.82,8.33,3.7,13.95,5.07,18-.94l1.36-2.02,1.36-2.02c4.05-6.01.67-10.7-5.87-17.04-2.6-2.51-5.92-5.79-7.02-7.18Z"/><path class="uuid-bc1e4baa-6080-4644-b5c1-0d8a7200c0ee" d="m207.71,137.37c6.34,6.55,11.03,9.93,17.04,5.87l2.02-1.36,2.02-1.36c6.01-4.05,4.63-9.67.94-18-1.47-3.3-3.32-7.59-3.82-9.28l-12.68,8.56-12.68,8.56c1.38,1.1,4.66,4.42,7.18,7.02Z"/><path class="uuid-bc1e4baa-6080-4644-b5c1-0d8a7200c0ee" d="m447.68,167.44l-.05-13.21c-.12-31.41-36.85-40.48-38.23-50.56h-1.03c-1.33,10.02-37.78,19.64-37.67,50.85l.05,13.21,76.92-.29Z"/><polygon class="uuid-bc1e4baa-6080-4644-b5c1-0d8a7200c0ee" points="384.33 60.07 398.9 60.07 409.21 70.38 419.52 60.07 434.09 60.07 434.09 45.5 444.4 35.19 434.09 24.88 434.09 10.31 419.52 10.31 409.21 0 398.9 10.31 384.33 10.31 384.33 24.88 374.02 35.19 384.33 45.5 384.33 60.07"/><path class="uuid-bc1e4baa-6080-4644-b5c1-0d8a7200c0ee" d="m344.32,90.62l2.39-.46,2.39-.46c7.12-1.38,8.04-7.09,7.89-16.2-.06-3.61-.09-8.28.11-10.04l-15.02,2.92-15.02,2.92c.84,1.55,2.56,5.89,3.86,9.26,3.28,8.5,6.27,13.45,13.39,12.07Z"/><path class="uuid-bc1e4baa-6080-4644-b5c1-0d8a7200c0ee" d="m461.43,73.48c-.15,9.11.78,14.82,7.89,16.2l2.39.46,2.39.46c7.12,1.38,10.11-3.56,13.39-12.07,1.3-3.37,3.02-7.71,3.86-9.26l-15.02-2.92-15.02-2.92c.2,1.75.17,6.42.11,10.04Z"/><path class="uuid-bc1e4baa-6080-4644-b5c1-0d8a7200c0ee" d="m564.56,200.86l-9.31,9.38,54.6,54.19,9.31-9.38c22.12-22.29,2.57-54.68,8.72-62.78l-.73-.72c-8.02,6.15-40.6-12.84-62.58,9.32Z"/><polygon class="uuid-bc1e4baa-6080-4644-b5c1-0d8a7200c0ee" points="651.28 168.59 665.85 168.59 676.16 178.9 686.47 168.59 701.04 168.59 701.04 154.02 711.35 143.71 701.04 133.4 701.04 118.83 686.47 118.83 676.16 108.52 665.85 118.83 651.28 118.83 651.28 133.4 640.97 143.71 651.28 154.02 651.28 168.59"/><path class="uuid-bc1e4baa-6080-4644-b5c1-0d8a7200c0ee" d="m591.08,137.02l2.02,1.36,2.02,1.36c6.01,4.05,10.7.67,17.04-5.87,2.51-2.6,5.79-5.92,7.18-7.02l-12.68-8.56-12.68-8.56c-.5,1.69-2.35,5.98-3.82,9.28-3.7,8.33-5.07,13.95.94,18Z"/><path class="uuid-bc1e4baa-6080-4644-b5c1-0d8a7200c0ee" d="m686,207.71c-6.55,6.34-9.93,11.03-5.87,17.04l1.36,2.02,1.36,2.02c4.05,6.01,9.67,4.63,18,.94,3.3-1.47,7.59-3.32,9.28-3.82l-8.56-12.68-8.56-12.68c-1.1,1.38-4.42,4.66-7.02,7.18Z"/><path class="uuid-bc1e4baa-6080-4644-b5c1-0d8a7200c0ee" d="m719.7,409.4v-1.03c-10.02-1.33-19.63-37.78-50.85-37.67l-13.21.05.29,76.92,13.21-.05c31.41-.12,40.48-36.85,50.56-38.23Z"/><polygon class="uuid-bc1e4baa-6080-4644-b5c1-0d8a7200c0ee" points="813.06 398.9 813.06 384.33 798.49 384.33 788.18 374.02 777.87 384.33 763.3 384.33 763.3 398.9 752.99 409.21 763.3 419.52 763.3 434.09 777.87 434.09 788.18 444.4 798.49 434.09 813.06 434.09 813.06 419.52 823.37 409.21 813.06 398.9"/><path class="uuid-bc1e4baa-6080-4644-b5c1-0d8a7200c0ee" d="m733.22,346.71l.46,2.39c1.38,7.12,7.09,8.04,16.2,7.89,3.61-.06,8.28-.09,10.04.11l-2.92-15.02-2.92-15.02c-1.55.84-5.89,2.56-9.26,3.86-8.5,3.28-13.45,6.27-12.07,13.39l.46,2.39Z"/><path class="uuid-bc1e4baa-6080-4644-b5c1-0d8a7200c0ee" d="m744.82,487.49c3.37,1.3,7.71,3.02,9.26,3.86l2.92-15.02,2.92-15.02c-1.75.2-6.42.17-10.04.11-9.11-.15-14.82.78-16.2,7.89l-.46,2.39-.46,2.39c-1.38,7.12,3.56,10.11,12.07,13.39Z"/><path class="uuid-bc1e4baa-6080-4644-b5c1-0d8a7200c0ee" d="m622.51,564.56l-9.38-9.31-54.19,54.6,9.38,9.31c22.29,22.13,54.68,2.57,62.78,8.72l.72-.73c-6.15-8.02,12.83-40.6-9.32-62.58Z"/><polygon class="uuid-bc1e4baa-6080-4644-b5c1-0d8a7200c0ee" points="704.54 651.28 689.96 651.28 679.66 640.97 669.35 651.28 654.78 651.28 654.78 665.85 644.47 676.16 654.78 686.47 654.78 701.04 669.35 701.04 679.66 711.35 689.96 701.04 704.54 701.04 704.54 686.47 714.85 676.16 704.54 665.85 704.54 651.28"/><path class="uuid-bc1e4baa-6080-4644-b5c1-0d8a7200c0ee" d="m696.52,619.33l8.56-12.68,8.56-12.68c-1.69-.5-5.98-2.35-9.28-3.82-8.33-3.7-13.95-5.07-18,.94l-1.36,2.02-1.36,2.02c-4.05,6.01-.67,10.7,5.88,17.04,2.6,2.51,5.92,5.79,7.02,7.18Z"/><path class="uuid-bc1e4baa-6080-4644-b5c1-0d8a7200c0ee" d="m615.66,686c-6.34-6.55-11.03-9.93-17.04-5.87l-2.02,1.36-2.02,1.36c-6.01,4.05-4.63,9.67-.94,18,1.47,3.3,3.32,7.59,3.82,9.28l12.68-8.56,12.68-8.56c-1.38-1.1-4.66-4.42-7.18-7.02Z"/><path class="uuid-bc1e4baa-6080-4644-b5c1-0d8a7200c0ee" d="m552.61,704.08l4.43-1.79-27.09-46.95-5.26,2.12-6.58-16.3,3.79-1.53.34-14.89-39.23,15.85,10.59,10.48,3.79-1.53,6.58,16.3-5.26,2.12,13.13,52.59,4.43-1.79c-1.94-9.59,2.84-19.36,11.85-23,9-3.64,19.22.07,24.5,8.31Zm-41.12-41.28l-6.58-16.3,5.69-2.3,6.58,16.3-5.69,2.3Z"/><path class="uuid-bc1e4baa-6080-4644-b5c1-0d8a7200c0ee" d="m545.51,736.8c-20.97,8.47.37,29.97-15.21,36.27,3.66,4.65,11.44,4.98,17.5-.94,4.45,11.02,8.35,8.21,17.66,14.06,2.63-10.68,7.39-11.36,2.94-22.38,8.47.05,13.84-5.59,13.24-11.48-15.58,6.3-15.17-23.99-36.13-15.52Z"/><path class="uuid-bc1e4baa-6080-4644-b5c1-0d8a7200c0ee" d="m300.26,623.98l.08,14.9,3.76,1.6-6.87,16.18-5.22-2.21-27.9,46.47,4.4,1.87c5.41-8.15,15.7-11.68,24.64-7.89,8.94,3.79,13.55,13.64,11.44,23.2l4.4,1.87,14.04-52.35-5.22-2.21,6.87-16.18,3.76,1.6,10.77-10.29-38.95-16.53Zm10.09,38.24l-5.65-2.4,6.87-16.18,5.65,2.4-6.87,16.18Z"/><path class="uuid-bc1e4baa-6080-4644-b5c1-0d8a7200c0ee" d="m276.43,736.2c-20.82-8.84-20.93,21.46-36.4,14.89-.7,5.88,4.57,11.61,13.04,11.71-4.64,10.94.1,11.71,2.54,22.43,9.41-5.69,13.26-2.81,17.9-13.75,5.96,6.03,13.74,5.83,17.48,1.25-15.47-6.57,6.24-27.69-14.57-36.53Z"/><path class="uuid-bc1e4baa-6080-4644-b5c1-0d8a7200c0ee" d="m182.79,483.01l-10.48,10.59,1.53,3.79-16.3,6.58-2.12-5.26-52.59,13.13,1.79,4.43c9.59-1.94,19.36,2.84,23,11.84,3.64,9-.07,19.22-8.31,24.5l1.79,4.43,46.95-27.09-2.12-5.26,16.3-6.58,1.53,3.79,14.89.34-15.85-39.23Zm-19.91,34.17l-2.3-5.69,16.3-6.58,2.3,5.69-16.3,6.58Z"/><path class="uuid-bc1e4baa-6080-4644-b5c1-0d8a7200c0ee" d="m50.31,530.3c-4.65,3.66-4.98,11.44.94,17.5-11.02,4.45-8.21,8.35-14.06,17.66,10.68,2.63,11.36,7.39,22.38,2.94-.05,8.47,5.59,13.84,11.48,13.24-6.3-15.58,23.99-15.17,15.52-36.13-8.47-20.97-29.97.37-36.27-15.21Z"/><path class="uuid-bc1e4baa-6080-4644-b5c1-0d8a7200c0ee" d="m157.99,317.82l16.18,6.87-1.6,3.76,10.29,10.77,16.53-38.95-14.9.08-1.6,3.76-16.18-6.87,2.21-5.22-46.47-27.9-1.87,4.4c8.15,5.41,11.68,15.7,7.89,24.64-3.79,8.94-13.64,13.55-23.2,11.44l-1.87,4.4,52.35,14.05,2.21-5.22Zm5.57-13.12l16.18,6.87-2.4,5.65-16.18-6.87,2.4-5.65Z"/><path class="uuid-bc1e4baa-6080-4644-b5c1-0d8a7200c0ee" d="m51.89,273.52c-6.03,5.96-5.83,13.74-1.25,17.48,6.57-15.47,27.69,6.24,36.53-14.57,8.84-20.82-21.46-20.93-14.89-36.4-5.88-.7-11.61,4.57-11.71,13.04-10.94-4.64-11.71.1-22.43,2.55,5.69,9.41,2.81,13.26,13.75,17.9Z"/><path class="uuid-bc1e4baa-6080-4644-b5c1-0d8a7200c0ee" d="m270.77,119.3l-4.43,1.79,27.09,46.95,5.26-2.12,6.58,16.3-3.79,1.53-.34,14.89,39.23-15.85-10.59-10.48-3.79,1.53-6.58-16.3,5.26-2.12-13.13-52.59-4.43,1.79c1.94,9.59-2.84,19.36-11.84,23-9,3.64-19.22-.07-24.5-8.31Zm41.12,41.28l6.58,16.3-5.69,2.3-6.58-16.3,5.69-2.3Z"/><path class="uuid-bc1e4baa-6080-4644-b5c1-0d8a7200c0ee" d="m277.86,86.58c20.97-8.47-.37-29.97,15.21-36.27-3.66-4.65-11.44-4.98-17.5.94-4.45-11.02-8.35-8.21-17.66-14.06-2.63,10.68-7.39,11.36-2.94,22.38-8.47-.05-13.84,5.59-13.24,11.48,15.58-6.3,15.17,23.99,36.13,15.52Z"/><path class="uuid-bc1e4baa-6080-4644-b5c1-0d8a7200c0ee" d="m523.11,199.4l-.08-14.9-3.76-1.6,6.87-16.18,5.22,2.22,27.9-46.47-4.4-1.87c-5.41,8.15-15.7,11.68-24.64,7.89-8.94-3.79-13.55-13.64-11.44-23.2l-4.4-1.87-14.05,52.35,5.22,2.21-6.87,16.18-3.76-1.6-10.77,10.29,38.95,16.53Zm-10.09-38.24l5.65,2.4-6.87,16.18-5.65-2.4,6.87-16.18Z"/><path class="uuid-bc1e4baa-6080-4644-b5c1-0d8a7200c0ee" d="m546.94,87.18c20.82,8.84,20.93-21.46,36.4-14.89.7-5.88-4.57-11.61-13.04-11.71,4.64-10.94-.1-11.71-2.54-22.43-9.41,5.69-13.26,2.81-17.9,13.75-5.96-6.03-13.74-5.83-17.48-1.25,15.47,6.57-6.24,27.69,14.57,36.53Z"/><polygon class="uuid-bc1e4baa-6080-4644-b5c1-0d8a7200c0ee" points="582.33 298.76 564.19 259.18 526.26 241.8 495.95 213.16 452.49 211.17 411.69 196.02 372.57 210.54 330.89 211.72 298.75 241.05 259.18 259.18 241.8 297.11 213.16 327.42 211.17 370.89 196.02 411.68 210.54 450.78 211.72 492.48 241.06 524.64 259.19 564.19 297.09 581.56 327.42 610.22 370.9 612.21 411.69 627.36 450.77 612.84 492.48 611.66 524.64 582.31 564.19 564.19 581.56 526.29 610.21 495.96 612.21 452.47 627.35 411.69 612.83 372.59 611.65 330.9 582.33 298.76"/><path class="uuid-bc1e4baa-6080-4644-b5c1-0d8a7200c0ee" d="m695.76,295.27c-3.64-9,.07-19.22,8.31-24.5l-1.79-4.43-46.95,27.09,2.12,5.26-16.3,6.58-1.53-3.79-14.89-.34,15.85,39.23,10.48-10.59-1.53-3.79,16.3-6.58,2.12,5.26,52.59-13.13-1.79-4.43c-9.6,1.94-19.36-2.84-23-11.84Zm-49.26,23.21l-2.3-5.69,16.3-6.58,2.3,5.69-16.3,6.58Z"/><path class="uuid-bc1e4baa-6080-4644-b5c1-0d8a7200c0ee" d="m773.06,293.08c4.65-3.66,4.98-11.44-.94-17.5,11.02-4.45,8.21-8.35,14.06-17.66-10.68-2.63-11.36-7.39-22.38-2.94.05-8.47-5.59-13.84-11.48-13.24,6.3,15.58-23.99,15.17-15.52,36.13,8.47,20.97,29.97-.37,36.27,15.21Z"/><path class="uuid-bc1e4baa-6080-4644-b5c1-0d8a7200c0ee" d="m665.38,505.56l-16.18-6.87,1.6-3.76-10.29-10.77-16.53,38.95,14.9-.08,1.6-3.76,16.18,6.87-2.22,5.22,46.47,27.9,1.87-4.4c-8.15-5.41-11.68-15.7-7.89-24.64,3.79-8.94,13.64-13.55,23.2-11.44l1.87-4.4-52.35-14.05-2.21,5.22Zm-5.57,13.12l-16.18-6.87,2.4-5.65,16.18,6.87-2.4,5.65Z"/><path class="uuid-bc1e4baa-6080-4644-b5c1-0d8a7200c0ee" d="m771.48,549.86c6.03-5.96,5.83-13.74,1.25-17.48-6.57,15.47-27.69-6.24-36.53,14.57-8.84,20.82,21.46,20.93,14.89,36.4,5.88.7,11.61-4.57,11.71-13.04,10.94,4.64,11.71-.1,22.43-2.54-5.69-9.41-2.81-13.26-13.75-17.9Z"/></svg>