<?xml version="1.0" encoding="UTF-8"?>
<svg id="Primary_Lockup" data-name="Primary Lockup" xmlns="http://www.w3.org/2000/svg" viewBox="0 0 1294.05 833.78">
  <defs>
    <style>
      .cls-1 {
        fill: #fff;
      }
    </style>
  </defs>
  <g>
    <path class="cls-1" d="M228.81,706.69c-2.69,0-5.38.42-7.65.71.57-12.89.57-26.5.57-40.24v-4.68h-46.62v4.68c0,11.05-.14,24.51.42,40.24-2.27-.28-4.96-.71-7.65-.71-2.55,0-5.52.42-7.79.71.57-7.09,1.14-24.23,1.14-50.02,0-20.4-.57-36.27-1.14-45.06,1.99.28,4.54.71,7.09.71,3.12,0,6.09-.42,8.36-.71-.42,12.61-.42,24.8-.42,36.42v3.4h46.62v-13.74c0-7.37-.14-16.44-.43-26.07,2.27.28,5.1.71,8.22.71,2.55,0,5.1-.42,7.09-.71-.57,11.34-.99,27.06-.99,45.06,0,25.22.42,42.37.99,50.02-2.27-.28-5.25-.71-7.79-.71Z"/>
    <path class="cls-1" d="M304.33,706.69c-1.98,0-4.39.42-6.09.71-1.42-5.24-1.42-9.92-1.42-13.89-4.54,10.49-13.46,15.87-23.8,15.87-13.89,0-22.1-8.93-22.1-20.4,0-23.24,25.51-19.27,45.06-29.19-.28-9.78-4.68-14.88-16.86-14.88-8.79,0-14.17,2.98-19.13,6.38v-10.2c6.66-3.12,12.9-4.53,20.97-4.53,6.94,0,13.74,1.84,17.99,4.39,8.22,5.1,9.36,12.18,9.36,23.24,0,4.53-.29,7.08-.29,11.62,0,9.49-.57,19.98,2.55,31.6-1.84-.28-4.54-.71-6.24-.71ZM263.95,687.84c0,6.23,4.39,12.18,12.89,12.18,5.25,0,10.35-2.69,13.89-7.23,4.96-6.38,5.52-14.74,5.52-25.65-17.85,9.35-32.3,6.38-32.3,20.69Z"/>
    <path class="cls-1" d="M362.72,698.04c-7.93,23.66-11.47,38.97-29.61,38.97-5.1,0-8.22-1.42-10.49-2.27v-10.48c2.27,1.56,4.53,2.98,8.5,2.98,7.08,0,11.62-6.23,15.44-18.99-10.2-21.96-19.42-45.48-30.32-69.72,2.41.28,5.38.57,7.65.57,2.55,0,5.24-.28,7.51-.57,3.4,10.63,7.65,21.26,11.9,31.88l8.93,22.39,7.09-23.1c3.54-11.62,6.38-22.25,8.36-31.17,2.12.28,4.68.57,7.22.57s5.38-.28,7.37-.57c-5.52,14.17-11.05,34.43-19.56,59.51Z"/>
    <path class="cls-1" d="M428.61,698.04c-7.93,23.66-11.47,38.97-29.61,38.97-5.1,0-8.22-1.42-10.49-2.27v-10.48c2.27,1.56,4.53,2.98,8.5,2.98,7.08,0,11.62-6.23,15.44-18.99-10.2-21.96-19.42-45.48-30.32-69.72,2.41.28,5.38.57,7.65.57,2.55,0,5.24-.28,7.51-.57,3.4,10.63,7.65,21.26,11.9,31.88l8.93,22.39,7.09-23.1c3.54-11.62,6.38-22.25,8.36-31.17,2.12.28,4.68.57,7.22.57s5.38-.28,7.37-.57c-5.52,14.17-11.05,34.43-19.56,59.51Z"/>
    <path class="cls-1" d="M504.42,706.69c-1.98,0-4.39.42-6.09.71-1.42-5.24-1.42-9.92-1.42-13.89-4.54,10.49-13.46,15.87-23.8,15.87-13.89,0-22.11-8.93-22.11-20.4,0-23.24,25.51-19.27,45.06-29.19-.28-9.78-4.68-14.88-16.86-14.88-8.79,0-14.17,2.98-19.13,6.38v-10.2c6.66-3.12,12.89-4.53,20.97-4.53,6.94,0,13.74,1.84,17.99,4.39,8.22,5.1,9.36,12.18,9.36,23.24,0,4.53-.29,7.08-.29,11.62,0,9.49-.57,19.98,2.55,31.6-1.84-.28-4.54-.71-6.24-.71ZM464.04,687.84c0,6.23,4.39,12.18,12.89,12.18,5.25,0,10.34-2.69,13.89-7.23,4.96-6.38,5.53-14.74,5.53-25.65-17.85,9.35-32.31,6.38-32.31,20.69Z"/>
    <path class="cls-1" d="M581.65,706.69c-2.69,0-5.24.42-7.22.71-6.8-13.74-13.75-25.22-19.42-35l-12.61,14.45c0,4.68,0,11.48.57,20.54-1.98-.42-4.39-.71-6.8-.71s-4.68.28-6.8.71c.85-11.9.85-28.76.85-50.44,0-23.38-.71-38.97-.99-44.64,1.98.28,4.68.57,6.94.57,2.55,0,5.1-.28,6.95-.57-.85,12.75-.71,30.89-.71,54.41v4.96c12.47-13.18,22.25-24.09,28.62-33.16,2.41.43,5.1.57,7.65.57,2.69,0,5.81-.28,8.08-.57-8.79,8.36-16.01,17.15-23.38,25.36,10.49,18.7,19.13,33.44,25.79,43.5-2.27-.42-4.96-.71-7.51-.71Z"/>
    <path class="cls-1" d="M651.64,706.69c-1.98,0-4.11.28-6.09.71-.43-4.39-.85-8.93-.85-13.32-3.97,9.78-11.62,15.3-22.25,15.3-9.49,0-18.28-4.25-21.82-13.6-2.69-7.09-2.12-21.26-2.12-29.05,0-9.35-.14-18.84-.85-28.2,2.27.28,4.68.57,6.94.57,2.41,0,4.68-.14,7.09-.57-.85,11.2-.7,22.53-.7,33.73,0,5.67-.43,16.86,3.11,21.68,2.41,3.4,6.8,5.24,10.91,5.24,14.74,0,18.28-12.04,18.28-24.65v-8.79c0-9.07-.28-18.14-.99-27.21,2.41.28,4.68.57,7.09.57,2.27,0,4.68-.28,6.94-.57-.85,14.17-.85,28.34-.85,42.65,0,8.79.57,17.57,1.98,26.21-1.98-.28-3.82-.71-5.81-.71Z"/>
    <path class="cls-1" d="M769.68,706.69c-1.98,0-4.68.42-6.95.71.29-7.37.71-16.86.71-28.48,0-19.84.99-32.17-12.89-32.17-7.51,0-12.9,3.54-18.14,10.06.28,18.7-.14,35.57.99,50.58-1.84-.28-4.39-.71-6.66-.71-2.41,0-5.1.42-7.23.71.85-10.63.71-20.12.71-28.34,0-21.54,1.14-32.31-12.75-32.31-6.52,0-13.04,4.11-18.28,11.9v5.24c0,14.45,0,29.05.99,43.5-2.83-.57-5.38-.71-7.22-.71-2.41,0-4.96.42-6.8.71.85-9.49.85-21.54.85-35.85,0-11.9-.14-22.96-.85-33.02,1.84.28,4.11.57,6.09.57,2.27,0,4.68-.28,6.66-.57l-.43,11.2c6.38-8.08,12.75-13.18,22.67-13.18s16.01,4.11,18.85,12.33c5.95-7.79,12.04-12.33,23.1-12.33,6.38,0,11.62,1.56,15.73,5.38,7.23,6.66,6.95,15.73,6.95,27.77,0,5.1-.14,7.94-.14,13.04,0,4.53,0,12.61.99,24.65-1.98-.28-4.82-.71-6.94-.71Z"/>
    <path class="cls-1" d="M902.18,706.69c-2.41,0-5.52.42-8.08.71-.71-2.55-3.26-12.89-10.06-31.46h-36.98c-1.13,3.26-4.81,13.32-9.92,31.46-2.55-.28-5.81-.71-8.22-.71-2.27,0-5.38.42-7.93.71,6.52-15.02,11.76-30.75,17.28-46.33,5.1-14.45,11.05-30.61,16.44-48.74,3.83.43,7.51.71,10.91.71s7.09-.28,10.91-.71c4.25,14.6,7.94,24.66,10.06,30.75,9.21,25.93,16.58,47.61,23.66,64.33-2.55-.28-5.81-.71-8.08-.71ZM865.62,623.37l-15.16,42.93h30.46l-15.3-42.93Z"/>
    <path class="cls-1" d="M926.42,706.69c-2.55,0-4.96.28-7.23.71.85-10.2.99-26.21.99-47.61s-.14-37.27-.99-47.47c2.84.43,5.25.57,7.23.57s4.39-.14,7.09-.57c-.99,14.45-1.14,30.32-1.14,47.47s.14,33.16,1.14,47.61c-2.55-.57-4.96-.71-7.09-.71Z"/>
    <path class="cls-1" d="M959.29,706.69c-2.55,0-4.96.28-7.23.71.85-10.2.99-26.21.99-47.61s-.14-37.27-.99-47.47c2.84.43,5.25.57,7.23.57s4.39-.14,7.09-.57c-.99,14.45-1.14,30.32-1.14,47.47s.14,33.16,1.14,47.61c-2.55-.57-4.96-.71-7.09-.71Z"/>
    <path class="cls-1" d="M1033.53,706.69c-1.98,0-4.39.42-6.09.71-1.42-5.24-1.42-9.92-1.42-13.89-4.54,10.49-13.46,15.87-23.8,15.87-13.89,0-22.1-8.93-22.1-20.4,0-23.24,25.51-19.27,45.06-29.19-.28-9.78-4.68-14.88-16.86-14.88-8.79,0-14.17,2.98-19.13,6.38v-10.2c6.66-3.12,12.9-4.53,20.97-4.53,6.94,0,13.74,1.84,17.99,4.39,8.22,5.1,9.36,12.18,9.36,23.24,0,4.53-.29,7.08-.29,11.62,0,9.49-.57,19.98,2.55,31.6-1.84-.28-4.54-.71-6.24-.71ZM993.15,687.84c0,6.23,4.39,12.18,12.89,12.18,5.25,0,10.35-2.69,13.89-7.23,4.96-6.38,5.52-14.74,5.52-25.65-17.85,9.35-32.3,6.38-32.3,20.69Z"/>
    <path class="cls-1" d="M1111.33,706.69c-2.55,0-5.1.42-7.09.71,1.42-11.19,1.28-23.66,1.28-36.98,0-3.83,0-5.95-.28-9.78-.57-8.36-6.09-13.89-14.45-13.89-7.79,0-13.46,3.97-19.27,10.49v12.33c0,21.39.71,34.01.85,37.83-1.98-.28-4.68-.71-6.94-.71-1.84,0-4.82.42-7.09.71,1.14-11.19.99-27.49.99-49.17,0-18-.14-33.44-.99-45.91,1.84.28,4.54.57,7.09.57s4.96-.28,6.94-.57c-.85,10.2-.99,19.41-.99,27.49,0,2.98.14,4.68.14,7.65,6.66-6.52,12.04-10.91,22.67-10.91,7.23,0,13.46,2.41,17.57,6.8,5.53,6.09,5.95,12.89,5.95,22.1v12.04c0,12.19-.28,22.25.57,29.9-2.13-.42-4.68-.71-6.95-.71Z"/>
  </g>
  <path class="cls-1" d="M504.39,433.29c0,12.63-3.21,23.69-4.78,35.97l.53.77c4.14-2.05,15.59-26.83,17.06-32.03,3.44-12.17,5.1-25.35,5.1-37.92,0-46.3-14.2-90.96-26.02-135.52-6.79-25.61-12.67-51.45-17.05-77.52l-.5-.22c-2.72,0-17.37,29.32-17.37,33.77,0,12.53,13.16,63.06,17.08,77.85,11.76,44.35,25.95,88.77,25.95,134.86"/>
  <path class="cls-1" d="M297.14,213.11l.31.07c1.31-1.38,5.25-8.45,5.25-10.13,0-6.72-1.17-17.05-3.95-23.22-1.33.52-5.54,8.75-5.54,10.2v.28c2.46,7.7,3.73,14.75,3.93,22.8"/>
  <path class="cls-1" d="M316.51,224.08c2.42,2.98,5.05,8.29,5.05,12.18v.94c-1.98,1.7-5.95,2.34-8.5,2.34-10.97,0-10.3-15.37-10.27-22.91l-.32-.08c-1.4,1.69-5.38,9.47-5.38,11.31,0,7.71-.77,23.49,10.45,23.49,4.69,0,8.18-1.53,11.47-4.84,3.17-3.19,8.26-15.07,8.26-19.56,0-5.36-1.76-10.47-5.15-14.64-1.35.65-5.66,9.8-5.66,11.42l.03.34Z"/>
  <path class="cls-1" d="M290.51,240.73c-6.84,0-11.18-4.04-11.18-10.96,0-4.8,3.12-8.86,3.12-11.54v-.31c-2.75.18-8.83,19.93-8.83,23.17,0,7.14,4.21,11.45,11.38,11.45,5,0,10.6-3.85,14.06-7.24,1.31-1.28,5.38-9.57,5.38-11.31v-.31c-3.38,3.12-9.26,7.05-13.92,7.05"/>
  <path class="cls-1" d="M150.19,430.67l.68.49.93-.89c26.65-28.94,46.48-39.31,82.68-55.16,14.16-6.2,29.81-12.86,40.85-23.61,4.58-4.47,16.4-27.97,16.9-34.14l-.68-.48-.33.26c-13.63,11.74-29.32,18.28-45.83,25.52-30.91,13.56-57.53,28.66-78.91,54.52-4.52,5.46-15.73,26.91-16.3,33.5"/>
  <path class="cls-1" d="M197.97,446.48c14.6,0,28.39-3.59,39.71-13.18,6.1-5.17,19.56-30.91,19.79-38.84l-.68-.51c-14.7,11.64-22.44,15.49-41.52,15.49-12.09,0-30.13-3.15-39.41-11.35l-.54.06c-4.33,3.8-25.13,26.89-25.13,32.52l.13.58c10.59,8.53,34.34,15.23,47.64,15.23"/>
  <path class="cls-1" d="M429.68,424.03v2.53c-4.64,3.5-14.04,5.51-19.8,5.51-13.1,0-24.78-5.51-32.71-16-12.08-15.99-19.71-68.71-24.07-90.25-3.42-16.92-7.15-33.79-11.57-50.48l-.5-.24c-4.67,4.62-17.37,30.52-17.37,36.32,0,1.59,9.55,40.86,10.77,46.79,4.62,22.49,12.56,78.13,25.1,94.75,7.98,10.58,19.84,16.16,33.04,16.16,9.48,0,18.48-3.68,25.74-9.67,16.02-13.21,29.28-50.43,29.28-71.14,0-24.88-15.04-56.87-23.7-80.37-5.45-14.81-10.45-29.79-14.78-44.96l-.5-.24c-2.65,0-17.37,31.39-17.37,36.32l.03.36c4.17,15.24,9.41,30.39,14.87,45.21,8.4,22.81,23.55,55.4,23.55,79.4"/>
  <path class="cls-1" d="M309.83,432.96c-55.35,0-51.96-61.26-52.13-90.01-.09-15.36.6-31.27-1.4-46.55l-.26-.44c-5.27,1.47-23.38,31.41-23.38,36.37,0,15.4,1.29,30.91,1.39,46.36.18,29.15-3.17,91.33,52.93,91.33,35.85,0,56.29-41.04,67.48-61.78,3.12-5.78,10.65-17.08,11.16-22.78l-.89-.51c-20.49,16.04-17.31,48.03-54.9,48.03"/>
  <path class="cls-1" d="M1142.14,397.22h-2c-19.96,0-50.4,12.35-69.48,19.8-46.05,17.97-95.62,38.64-145.4,38.64-28.89,0-76.89-10.9-73.88-50.56l-.5-.82c-3.91,3.03-9.03,16.98-12.03,22.13-10.46,17.96-25.99,28.73-46.34,28.73-30.3,0-38.26-18.76-43.2-46.55-6.5-36.55-7.53-74.91-10.83-111.94-3.68-41.17-8.34-82.88-14.25-123.77l-.19-.44c-4.08,2.22-16.88,31.1-16.88,36.36,0,11.9,3.03,25.61,4.51,37.53,3.49,28.13,7.05,56.25,9.57,84.49,3.38,37.77,4.42,76.92,11.05,114.2,4.99,28.05,13.11,47.15,43.71,47.15s44.93-21.62,58.04-46.33l-.04,1.62c0,34.45,49.33,45.23,74.76,45.23,47.7,0,95.15-18.88,139.28-36.19,22.78-8.94,53.34-22.25,77.6-22.25,2.89,0,16.79-31.54,16.79-36.39,0-.17-.22-.5-.29-.66"/>
  <path class="cls-1" d="M665.72,418.33l.6.03c4.7-5.6,17.23-29.54,17.23-36.24l-.08-.48c-19.37-54.95-96.55-147.08-136.26-193.32l-.54.07c-4.69,5.6-17.23,29.54-17.23,36.24l.13.58c39.53,50.11,116.97,134.58,136.14,193.13"/>
  <path class="cls-1" d="M530.65,224.54c80.82-44.04,232.41-90.73,324.24-90.73,14.31,0,33.69.14,33.69,19.65,0,22-18.91,50.47-22.09,70.48l.68.51c10.96-10.03,39.32-90.85,39.32-106.43,0-20.97-18.52-21.26-34.29-21.26-83.71,0-204.01,36.35-280.79,69.71-11.78,5.12-34.03,13.84-43.92,21.14-5.09,3.75-16.15,29.5-17.37,36.33l.53.59Z"/>
  <path class="cls-1" d="M627.07,420.55c-9.06,0-18.19-2.16-27.03-2.16-4.33,0-18.62,36.68-20.04,42.59-1.15,4.82-1.64,9.68-1.64,14.64,0,37.19,31.55,66.07,68.13,66.07.84,0,3.68-.05,4.41-.23,3.94-.97,16.74-30.78,17.57-35.89.86-5.25,1.38-10.66,1.38-15.97,0-34.42-19.62-57.68-51.12-69.26-4.54-1.67-18.22-5.96-22.6-5.96-3.04,0-17.61,31.45-17.61,36.39l.08.48c30.38,7.76,60.74,18.84,70.32,52.1-22.65-3.37-43.81-24.38-49.78-46.12,3.53.29,7.06.37,10.6.37,17.79,0,31.65-4.19,44.11-17.38,7.04-7.46,27.3-43.1,27.53-52.7l-.68-.51c-3.78,3.44-5.51,8.96-8.14,13.24-9.41,15.33-28.58,20.3-45.52,20.3"/>
  <path class="cls-1" d="M832.93,564.88l.47-.06c3.8-3.37,15.05-26.71,15.05-31.65l-.06-.42c-10.99-8.9-23.15-16.24-34.04-25.28l-.47.06c-3.8,3.37-15.05,26.71-15.05,31.65,0,.56,3.89,3.48,4.27,3.77,9.74,7.58,20.08,14.37,29.83,21.93"/>
  <path class="cls-1" d="M873.85,559.51l.47-.06c3.8-3.37,15.05-26.71,15.05-31.65l-.06-.42c-10.99-8.9-23.15-16.24-34.04-25.28l-.47.06c-3.8,3.37-15.05,26.71-15.05,31.65,0,.56,3.89,3.48,4.27,3.77,9.74,7.58,20.08,14.37,29.83,21.93"/>
  <path class="cls-1" d="M328.41,557.26l.08.51c67.48-1.91,183.24-18.71,233.78-68.15,11.48-11.23,19.55-25.37,26.37-40.03,3.47-7.45,10.59-22.81,11.71-30.47l-.68-.54c-5.95,6.19-7.63,14.9-11.98,22.08-4.02,6.62-12.32,14.02-18.3,18.8-44.63,35.67-119.31,49.14-174.14,55.37-8.98,1.02-43.76,2.79-49.23,4.31-3.66,1.02-17.61,33.25-17.61,38.11"/>
  <path class="cls-1" d="M1073.76,204.34l-269.41,82.36c-1.67.51-7.16,12.09-7.26,14.06,10.14-2.32,19.87-5.92,29.77-8.94l60.19-18.4,179.61-54.9c1.72-.53,7.09-12.04,7.26-14.06l-.16-.11Z"/>
  <path class="cls-1" d="M851.43,340.18c2.42,2.98,5.05,8.29,5.05,12.18v.94c-1.98,1.7-5.95,2.34-8.5,2.34-10.97,0-10.3-15.37-10.27-22.91l-.32-.08c-1.4,1.69-5.38,9.47-5.38,11.31,0,7.71-.77,23.49,10.45,23.49,4.69,0,8.18-1.53,11.47-4.84,3.17-3.19,8.26-15.07,8.26-19.56,0-5.36-1.76-10.47-5.15-14.64-1.35.65-5.66,9.8-5.66,11.42l.03.34Z"/>
  <path class="cls-1" d="M825.43,356.84c-6.84,0-11.18-4.04-11.18-10.96,0-4.8,3.12-8.86,3.12-11.54v-.31c-2.75.18-8.83,19.93-8.83,23.17,0,7.14,4.21,11.45,11.38,11.45,5,0,10.6-3.85,14.06-7.24,1.31-1.28,5.38-9.57,5.38-11.31v-.31c-3.38,3.12-9.26,7.05-13.92,7.05"/>
  <path class="cls-1" d="M945.85,516.78c0,6.64-.27,13.28-.91,19.89l.24.41c2.07-1.71,7.41-14.32,7.88-17.32,1.02-6.53.97-13.93.97-20.55,0-36.23-16.71-68.44-27.77-101.68-2.17,1.6-8.14,14.78-8.14,17.57l.02.48c10.28,33.98,27.7,64.22,27.7,101.2"/>
  <path class="cls-1" d="M939.3,405.78c20.74,0,41.2,4.79,61.43,9.01,39.46,8.23,79.06,18.41,119.55,18.41,2.14,0,4.58.16,6.69-.06,3.15-.33,16.89-31.72,16.89-36.39l-.07-.48c-2.3-.11-4.6-.11-6.91-.11-40.48,0-80.08-10.18-119.55-18.41-20.23-4.22-40.69-9.01-61.43-9.01-8.2,0-13.62,1.13-19.7,7.22-4.59,4.6-17.67,32.47-18.05,39.08l.65.51c9.59-8.25,3.85-9.77,20.51-9.77"/>
</svg>